<svg xmlns="http://www.w3.org/2000/svg" width="12" height="16" viewBox="0 0 12 16">
    <path fill="#BDC1C3" fill-rule="evenodd" d="M2.1 5.169h-.044v6.204c0 .517.393.94.873.94h.751V14.477c0 .52.39.94.872.94s.872-.42.872-.94v-2.162H6.6v2.162c0 .52.39.94.872.94s.872-.42.872-.94v-2.162h.733c.48 0 .872-.424.872-.941V5.169H2.1zm1.737-2.235c0 .22.166.4.37.4.205 0 .371-.18.371-.4 0-.221-.166-.4-.37-.4-.205 0-.371.179-.371.4zm3.59 0c0 .22.166.4.37.4.205 0 .37-.18.37-.4 0-.221-.165-.4-.37-.4-.204 0-.37.179-.37.4zM2.067 4.84a3.543 3.543 0 0 1 .094-.969 3.814 3.814 0 0 1 1.868-2.44L3.423.226a.16.16 0 0 1 .058-.207.137.137 0 0 1 .192.061l.612 1.22A4.062 4.062 0 0 1 6.01.918c.613 0 1.194.135 1.712.375L8.332.08c.037-.074.123-.102.192-.061a.16.16 0 0 1 .057.207L7.98 1.424c.979.543 1.692 1.478 1.908 2.582.025.124.043.251.054.38v.454H2.066zM12 5.945c0-.52-.39-.94-.872-.94s-.872.42-.872.94V9.898c0 .52.39.941.872.941.481 0 .872-.421.872-.94V5.945zm-10.256 0V9.898c0 .52-.39.941-.872.941S0 10.418 0 9.9V5.945c0-.52.39-.941.872-.941.481 0 .872.42.872.94z"/>
</svg>
