<svg xmlns="http://www.w3.org/2000/svg" width="12" height="15" viewBox="0 0 12 15">
    <path fill="#BDC1C3" fill-rule="nonzero" d="M10.022 7.491c.02 2.134 1.957 2.844 1.978 2.853-.016.05-.31 1.012-1.02 2.005-.614.86-1.251 1.715-2.256 1.733-.986.017-1.303-.56-2.432-.56-1.128 0-1.48.542-2.415.577-.969.035-1.707-.929-2.327-1.785C.285 10.564-.683 7.368.616 5.211a3.633 3.633 0 0 1 3.05-1.767c.952-.018 1.85.612 2.432.612.582 0 1.674-.758 2.822-.646.48.019 1.83.185 2.695 1.398-.07.042-1.61.9-1.593 2.683zm-1.855-5.24C8.682 1.655 9.03.826 8.934 0c-.742.028-1.639.473-2.17 1.068-.478.528-.895 1.372-.783 2.182.828.06 1.672-.402 2.187-.999z"/>
</svg>
