<svg width="20" height="22" viewBox="0 0 20 22" xmlns="http://www.w3.org/2000/svg"><title>AEFB06DE-9FA1-4367-B29C-643C28684E26</title><path d="M12.142 11.378l-3.537 3.537A1 1 0 0 1 7.191 13.5l4.951-4.95a1 1 0 0 0-1.414-1.415l-4.95 4.951a3 3 0 0 0 4.242 4.243l3.536-3.537 4.596-4.595a4.5 4.5 0 0 0-6.364-6.364L7.192 6.428l-4.95 4.95a6 6 0 1 0 8.486 8.485l6.364-6.364a1 1 0 1 0-1.414-1.414L9.314 18.45a4 4 0 1 1-5.657-5.657l4.95-4.95 4.595-4.595a2.5 2.5 0 0 1 3.536 3.535l-4.596 4.596z" fill-rule="nonzero" fill="#474C4E"/></svg>