<svg xmlns="http://www.w3.org/2000/svg" width="24" height="24" viewBox="0 0 24 24">
    <path fill="#21CF6C" fill-rule="evenodd" d="M5 14.044V18h2v-3.956h1.065L14 18v-4.106l1-1.04v-1.7l-1-1.047V6L8.044 9.97H4.3v4.074H5zm3-2.674v1.274H5.7V11.37H8zm1.7 1.84v-2.42l2.7-1.8v6.02l-2.7-1.8zM12 24C5.373 24 0 18.627 0 12S5.373 0 12 0s12 5.373 12 12-5.373 12-12 12zm4.42-9.472A3.49 3.49 0 0 0 17.5 12c0-.973-.4-1.883-1.092-2.54l-.688.726c.495.47.78 1.118.78 1.814a2.49 2.49 0 0 1-.771 1.806l.692.722zm.947 2.12a6.481 6.481 0 0 0 2.004-4.694 6.482 6.482 0 0 0-2.027-4.717l-.688.726a5.482 5.482 0 0 1 1.715 3.99c0 1.522-.62 2.942-1.696 3.974l.692.722z"/>
</svg>
