<svg xmlns="http://www.w3.org/2000/svg" width="20" height="22" viewBox="0 0 20 22">
    <path fill="#BDC1C3" fill-rule="evenodd" d="M4.437 19l-2.7 2.7A1.015 1.015 0 1 1 .3 20.264l1.88-1.88a3 3 0 0 1 .325-4.984l-.005-3.9a7.501 7.501 0 0 1 5.517-7.234 2 2 0 1 1 3.965 0 7.5 7.5 0 0 1 3.827 2.49l2.455-2.456A1.015 1.015 0 1 1 19.7 3.736l-2.807 2.807a7.49 7.49 0 0 1 .606 2.96v3.905c.91.525 1.5 1.5 1.5 2.592a3 3 0 0 1-3.002 3H13a3.004 3.004 0 0 1-3 3c-1.657 0-3-1.342-3-2.998V19H4.437zm2-2h9.56a1 1 0 0 0 .253-1.968c-.323-.084-.75-.643-.75-1.197V9.504c0-.48-.061-.946-.176-1.39L6.437 17zm-2.804-.07L14.385 6.178A5.499 5.499 0 0 0 4.5 9.498v4.336c0 .55-.336 1.091-.75 1.198a1 1 0 0 0-.117 1.898zM9 19v.002c0 .551.447.998 1 .998.549 0 .998-.448 1-1H9z"/>
</svg>
