<svg xmlns="http://www.w3.org/2000/svg" width="18" height="22" viewBox="0 0 18 22">
    <path fill="#22A5F6" fill-rule="evenodd" d="M6 19H3.002a3 3 0 1 1-1.498-5.601l-.004-3.9a7.501 7.501 0 0 1 5.517-7.234 2 2 0 1 1 3.965 0A7.502 7.502 0 0 1 16.5 9.504v3.904c.91.525 1.5 1.5 1.5 2.592a3 3 0 0 1-3.002 3H12a3.004 3.004 0 0 1-3 3c-1.657 0-3-1.342-3-2.998V19zm2 0v.002c0 .551.447.998 1 .998.549 0 .998-.448 1-1H8zm6.5-5.165V9.504A5.499 5.499 0 0 0 9 4a5.499 5.499 0 0 0-5.5 5.499v4.335c0 .55-.336 1.091-.75 1.198A1 1 0 0 0 3.001 17h11.996a1 1 0 0 0 .252-1.968c-.323-.084-.75-.643-.75-1.197z"/>
</svg>
