<svg xmlns="http://www.w3.org/2000/svg" width="20" height="22" viewBox="0 0 20 22">
    <g fill="#FFF" fill-rule="nonzero">
        <path d="M2.877 10.375a.973.973 0 0 0-.972.97V15.2c0 .535.435.97.972.97h.973v-5.795h-.973zM0 11.345A2.878 2.878 0 0 1 2.877 8.47h1.925c.526 0 .953.427.953.953v7.7a.952.952 0 0 1-.953.952H2.877A2.876 2.876 0 0 1 0 15.2v-3.854zM20 11.346V15.2a2.876 2.876 0 0 1-2.877 2.875h-1.925a.952.952 0 0 1-.953-.952v-7.7c0-.526.427-.953.953-.953h1.925A2.878 2.878 0 0 1 20 11.346zm-2.877 4.824a.972.972 0 0 0 .972-.97v-3.854a.973.973 0 0 0-.972-.971h-.973v5.795h.973z"/>
        <path d="M4.215 9.422V5.187a3.282 3.282 0 0 1 3.283-3.282h5.004a3.283 3.283 0 0 1 3.283 3.282v4.235a.952.952 0 0 0 1.905 0V5.187A5.188 5.188 0 0 0 12.502 0H7.498A5.187 5.187 0 0 0 2.31 5.187v4.235a.952.952 0 1 0 1.905 0zM15.415 17.288c.023.25-.041.592-.274.922-.52.738-1.743 1.233-3.986 1.233a.952.952 0 0 0 0 1.905c2.81 0 4.62-.733 5.543-2.04.529-.75.676-1.535.61-2.212a1.794 1.794 0 0 0-.018-.139.952.952 0 0 0-1.875.331z"/>
        <path d="M9.605 20.203a.182.182 0 0 1-.183.182h.771a.185.185 0 0 1-.183-.182c0-.102.081-.183.183-.183h-.771c.1 0 .183.083.183.183zm-1.905 0c0-.951.772-1.723 1.722-1.723h.771a1.723 1.723 0 0 1 0 3.445h-.771A1.72 1.72 0 0 1 7.7 20.203z"/>
    </g>
</svg>
