<svg xmlns="http://www.w3.org/2000/svg" width="30" height="30" viewBox="0 0 30 30">
    <path fill="#21CF6C" fill-rule="evenodd" d="M15 30C6.716 30 0 23.284 0 15 0 6.716 6.716 0 15 0c8.284 0 15 6.716 15 15 0 8.284-6.716 15-15 15zm-.303-17.522a.606.606 0 0 0 .001-.858l-2.353-2.353a.908.908 0 0 0-1.287.001l-1.284 1.283c-.824.825-1.023 2.32-.438 3.333 0 0 .702 1.637 3.237 4.173 2.536 2.536 4.144 3.212 4.144 3.212 1.004.6 2.505.383 3.331-.443l1.284-1.284a.908.908 0 0 0 .001-1.287l-2.353-2.353a.606.606 0 0 0-.858 0l-.641.642a.907.907 0 0 1-1.286-.002l-2.137-2.137a.91.91 0 0 1-.002-1.286l.641-.641z"/>
</svg>
