<?xml version="1.0" encoding="UTF-8"?>
<svg width="14px" height="16px" viewBox="0 0 14 16" version="1.1" xmlns="http://www.w3.org/2000/svg" xmlns:xlink="http://www.w3.org/1999/xlink">
    <!-- Generator: Sketch 51.1 (57501) - http://www.bohemiancoding.com/sketch -->
    <title>Cope</title>
    <desc>Created with Sketch.</desc>
    <defs></defs>
    <g id="Web" stroke="none" stroke-width="1" fill="none" fill-rule="evenodd">
        <g id="Artboard" transform="translate(-478.000000, -406.000000)" fill="#272E40" fill-rule="nonzero">
            <g id="Group-13" transform="translate(218.000000, 347.000000)">
                <g id="Group-14" transform="translate(20.000000, 20.000000)">
                    <g id="отпуск">
                        <g id="Group-5">
                            <g id="Cope" transform="translate(240.000000, 39.000000)">
                                <path d="M4.5,1 C4.22385763,1 4,1.22385763 4,1.5 L4,11.5 C4,11.7761424 4.22385763,12 4.5,12 L12.5,12 C12.7761424,12 13,11.7761424 13,11.5 L13,1.5 C13,1.22385763 12.7761424,1 12.5,1 L4.5,1 Z M4.5,0 L12.5,0 C13.3284271,-2.22044605e-16 14,0.671572875 14,1.5 L14,11.5 C14,12.3284271 13.3284271,13 12.5,13 L4.5,13 C3.67157288,13 3,12.3284271 3,11.5 L3,1.5 C3,0.671572875 3.67157288,1.11022302e-16 4.5,0 Z" id="Rectangle-20"></path>
                                <path d="M1.0244211,4.54150073 L1.0244211,14.5392949 C1.0244211,14.8154373 1.24827873,15.0392949 1.5244211,15.0392949 L9.58803759,15.0392949 C9.86417996,15.0392949 10.0880376,14.8154373 10.0880376,14.5392949 L10.0880376,12.8031431 L11,12.8031431 L11,14.5 C11,15.3284271 10.3284271,16 9.5,16 L1.5,16 C0.671572875,16 0,15.3284271 0,14.5 L0,4.5 C0,3.67157288 0.671572875,3 1.5,3 L3.24812709,3 L3.24812709,4.04150073 L1.5244211,4.04150073 C1.24827873,4.04150073 1.0244211,4.26535835 1.0244211,4.54150073 Z" id="Path"></path>
                            </g>
                        </g>
                    </g>
                </g>
            </g>
        </g>
    </g>
</svg>