<?xml version="1.0" encoding="UTF-8"?>
<svg width="18px" height="25px" viewBox="0 0 18 25" version="1.1" xmlns="http://www.w3.org/2000/svg" xmlns:xlink="http://www.w3.org/1999/xlink">
    <!-- Generator: Sketch 45 (43475) - http://www.bohemiancoding.com/sketch -->
    <title>female</title>
    <desc>Created with Sketch.</desc>
    <defs></defs>
    <g id="Правый-блок" stroke="none" stroke-width="1" fill="none" fill-rule="evenodd">
        <g id="Недоделанные-дела" transform="translate(-163.000000, -700.000000)" fill="#77909D">
            <g id="female" transform="translate(163.000000, 700.000000)">
                <path d="M9,17 C13.418278,17 17,13.418278 17,9 C17,4.581722 13.418278,1 9,1 C4.581722,1 1,4.581722 1,9 C1,13.418278 4.581722,17 9,17 Z M9,18 C4.02943725,18 0,13.9705627 0,9 C0,4.02943725 4.02943725,0 9,0 C13.9705627,0 18,4.02943725 18,9 C18,13.9705627 13.9705627,18 9,18 Z" id="Oval-2-Copy" fill-rule="nonzero"></path>
                <rect id="Rectangle" x="8.5" y="17" width="1" height="8"></rect>
                <rect id="Rectangle-2" x="6" y="21" width="6" height="1"></rect>
            </g>
        </g>
    </g>
</svg>