<svg xmlns="http://www.w3.org/2000/svg" width="35" height="23" viewBox="0 0 35 23">
    <path fill="#FFF" fill-rule="evenodd" d="M31.148 9.135V5.283h-2.752v3.852h-3.962v2.752h3.962v3.962h2.752v-3.962H35V9.135h-3.852zm-20.032-.22v4.403s4.271-.006 6.01-.006c-.941 2.854-2.406 4.408-6.01 4.408-3.647 0-6.493-2.956-6.493-6.604 0-3.647 2.846-6.603 6.493-6.603 1.929 0 3.174.677 4.316 1.622.915-.914.838-1.045 3.165-3.242A11.076 11.076 0 0 0 11.117 0C4.976 0 0 4.977 0 11.116c0 6.14 4.977 11.117 11.116 11.117 9.177 0 11.42-7.99 10.676-13.318H11.116z"/>
</svg>
