<?xml version="1.0" encoding="UTF-8"?>
<svg width="21px" height="21px" viewBox="0 0 21 21" version="1.1" xmlns="http://www.w3.org/2000/svg" xmlns:xlink="http://www.w3.org/1999/xlink">
    <!-- Generator: Sketch 46.2 (44496) - http://www.bohemiancoding.com/sketch -->
    <title>Combined Shape</title>
    <desc>Created with Sketch.</desc>
    <defs></defs>
    <g id="Левый-блок" stroke="none" stroke-width="1" fill="none" fill-rule="evenodd">
        <g id="Tickets/search-tickets" transform="translate(-765.000000, -158.000000)" fill-rule="nonzero" fill="#FFFFFF">
            <g id="New-call" transform="translate(730.000000, 123.000000)">
                <g id="client-4-ident" transform="translate(0.000000, 7.000000)">
                    <g id="Call" transform="translate(35.000000, 28.000000)">
                        <path d="M9.63175886,4.75549709 C10.0074808,5.13088812 10.0083244,5.73867444 9.63082257,6.11584375 L8.61310766,7.13266227 C8.0507938,7.69448086 8.05182606,8.60819921 8.61652392,9.17239969 L12.0076034,12.5604924 C12.5759563,13.1283447 13.4863279,13.126221 14.049139,12.5639056 L15.0668539,11.5470871 C15.443093,11.1711794 16.0516168,11.1697005 16.4283998,11.5461516 L20.163982,15.2784436 C20.7273922,15.8413575 20.7300033,16.7514124 20.1616504,17.3192647 L18.1245094,19.3546114 C16.812052,20.6659129 14.4294618,21.0107775 12.8361478,20.0581588 C12.8361478,20.0581588 10.2840275,18.9852996 6.25909487,14.9639121 C2.23416225,10.9425245 1.12083115,8.34523419 1.12083115,8.34523419 C0.192534295,6.73806817 0.507499833,4.3686441 1.81641544,3.06088137 L3.85355642,1.02553467 C4.41825428,0.461334197 5.32922495,0.456752794 5.89617665,1.02320513 L9.63175886,4.75549709 L9.63175886,4.75549709 Z" id="Combined-Shape"></path>
                    </g>
                </g>
            </g>
        </g>
    </g>
</svg>