<svg xmlns="http://www.w3.org/2000/svg" width="36" height="23" viewBox="0 0 36 23">
    <path fill="#FFF" fill-rule="evenodd" d="M8.274 10.92c-.79-.613-1.327-1.748-1.327-2.71a2.526 2.526 0 0 1 5.053 0c0 .962-.537 2.097-1.327 2.71l1.975.824a1 1 0 0 1 .615.923v1.244a.3.3 0 0 1-.3.3H5.984a.3.3 0 0 1-.3-.3v-1.244a1 1 0 0 1 .616-.923l1.974-.823zM2 0h32a2 2 0 0 1 2 2v18.737a2 2 0 0 1-2 2H2a2 2 0 0 1-2-2V2a2 2 0 0 1 2-2zm2.79 3.79a1 1 0 0 0-1 1v10.315a1 1 0 0 0 1 1h9.368a1 1 0 0 0 1-1V4.79a1 1 0 0 0-1-1H4.789zM18.4 5.683a.4.4 0 0 0-.4.4V7.18c0 .22.18.4.4.4h8.674a.4.4 0 0 0 .4-.4V6.084a.4.4 0 0 0-.4-.4H18.4zm0 3.79a.4.4 0 0 0-.4.4v1.094c0 .221.18.4.4.4h11.516a.4.4 0 0 0 .4-.4V9.874a.4.4 0 0 0-.4-.4H18.4z"/>
</svg>
