<svg xmlns="http://www.w3.org/2000/svg" width="26" height="26" viewBox="0 0 26 26">
    <path fill="#FFF" fill-rule="nonzero" d="M11.758 5.402c.488.488.49 1.278-.001 1.768l-1.323 1.322c-.731.73-.73 1.918.004 2.652l4.408 4.404a1.874 1.874 0 0 0 2.654.005l1.324-1.322c.489-.489 1.28-.49 1.77-.001l4.856 4.851a1.87 1.87 0 0 1-.003 2.654l-2.649 2.646c-1.706 1.704-4.803 2.153-6.874.914 0 0-3.318-1.395-8.55-6.622-5.233-5.228-6.68-8.605-6.68-8.605-1.207-2.089-.798-5.17.904-6.87L4.246.554A1.875 1.875 0 0 1 6.902.55l4.856 4.852z"/>
</svg>
