<svg xmlns="http://www.w3.org/2000/svg" width="26" height="26" viewBox="0 0 26 26">
    <path fill="#FFF" fill-rule="evenodd" d="M25.03 12.547c-.513-.007-.984.374-1.039.896-.118 1.117-.153 2.251-.572 3.292-3.242 8.08-12.829 9.434-18.202 4.064C.93 16.51.93 9.531 5.217 5.242c3.92-3.92 10.082-4.245 14.388-1h-1.659a1 1 0 1 0 0 2h4.242a1 1 0 0 0 1-1V1a1 1 0 1 0-2 0v1.927C15.63-1.592 7.178-.83 2.596 5.214c-3.49 4.606-3.457 11.14.076 15.712a12.977 12.977 0 0 0 10.324 5.088c3.33 0 6.658-1.267 9.192-3.8a12.97 12.97 0 0 0 3.796-8.624 1 1 0 0 0-.955-1.043"/>
</svg>
