<svg xmlns="http://www.w3.org/2000/svg" width="24" height="24" viewBox="0 0 24 24">
    <path fill="#E7EEF0" fill-rule="evenodd" d="M10.637 11.798l1.55-1.55a.8.8 0 0 0-1.131-1.132l-1.55 1.55-1.559-1.558a.8.8 0 0 0-1.131 1.132l1.558 1.558-1.562 1.561a.8.8 0 0 0 1.132 1.132l1.561-1.562 1.559 1.558a.8.8 0 1 0 1.131-1.131l-1.558-1.558zM12 24C5.373 24 0 18.627 0 12S5.373 0 12 0s12 5.373 12 12-5.373 12-12 12zm3.267-15.192v6.741c0 .2.025.324.076.375.05.05.174.076.368.076h.8c.195 0 .317-.025.368-.076.05-.051.076-.176.076-.375V7.786c0-.199-.025-.324-.076-.374-.05-.051-.173-.077-.368-.077h-2.044c-.199 0-.324.026-.374.077-.051.05-.077.175-.077.374v.571c0 .2.026.324.077.375.05.05.175.076.374.076h.8z"/>
</svg>
