<svg xmlns="http://www.w3.org/2000/svg" width="24" height="24" viewBox="0 0 24 24">
    <path fill="#E7EEF0" fill-rule="evenodd" d="M9.09 11.798l1.55-1.55a.8.8 0 1 0-1.132-1.132l-1.55 1.55L6.4 9.108a.8.8 0 0 0-1.132 1.132l1.558 1.558-1.561 1.561a.8.8 0 1 0 1.131 1.132l1.562-1.562 1.558 1.558a.8.8 0 0 0 1.131-1.131L9.09 11.798zM12 24C5.373 24 0 18.627 0 12S5.373 0 12 0s12 5.373 12 12-5.373 12-12 12zm4.51-12.646c.364-.225.623-.479.778-.762.154-.284.231-.646.231-1.086 0-.698-.234-1.267-.704-1.707-.483-.457-1.132-.686-1.949-.686-1.109 0-1.923.394-2.444 1.18-.24.373-.362.72-.362 1.042 0 .097.032.164.096.2.063.036.18.054.349.054h.673c.165 0 .274-.014.327-.041.052-.028.092-.09.117-.188.165-.6.544-.901 1.136-.901.313 0 .58.095.8.286.245.215.368.497.368.844 0 .393-.127.71-.38.952a.62.62 0 0 1-.232.15 4.902 4.902 0 0 1-.568.098c-.106.012-.176.047-.21.104-.034.057-.05.17-.05.34v.33c0 .17.018.286.056.35.039.063.108.094.21.094.207 0 .336.005.387.013.05.008.127.036.229.083.245.114.438.283.577.507.14.225.21.474.21.75 0 .342-.106.64-.318.894-.262.318-.62.476-1.072.476-.326 0-.625-.086-.895-.26a.965.965 0 0 1-.27-.26 2.534 2.534 0 0 1-.22-.502c-.029-.088-.069-.144-.12-.168-.05-.023-.156-.035-.317-.035h-.819c-.174 0-.291.02-.352.057-.062.039-.092.113-.092.223 0 .27.112.594.336.97.584.978 1.496 1.467 2.736 1.467.787 0 1.458-.194 2.012-.584.72-.508 1.08-1.23 1.08-2.164 0-.627-.172-1.15-.515-1.568-.182-.216-.455-.4-.819-.552z"/>
</svg>
