<svg xmlns="http://www.w3.org/2000/svg" width="24" height="24" viewBox="0 0 24 24">
    <path fill="#263238" fill-rule="evenodd" d="M9.09 11.798l1.55-1.55a.8.8 0 1 0-1.132-1.132l-1.55 1.55L6.4 9.108a.8.8 0 0 0-1.132 1.132l1.558 1.558-1.561 1.561a.8.8 0 1 0 1.131 1.132l1.562-1.562 1.558 1.558a.8.8 0 0 0 1.131-1.131L9.09 11.798zM12 24C5.373 24 0 18.627 0 12S5.373 0 12 0s12 5.373 12 12-5.373 12-12 12zm2.695-9.473l1.517-1.6c.558-.592.96-1.124 1.206-1.596.245-.472.368-.95.368-1.437 0-.77-.277-1.422-.831-1.956-.576-.55-1.32-.825-2.235-.825-.465 0-.903.085-1.314.254-.41.165-.749.415-1.015.75a3.48 3.48 0 0 0-.48.828c-.129.31-.193.578-.193.803 0 .11.03.184.092.222.061.038.18.057.358.057h.902c.16 0 .272-.016.333-.048.061-.031.098-.094.111-.187.025-.182.043-.295.054-.34a.873.873 0 0 1 .086-.193c.245-.436.618-.654 1.117-.654.33 0 .618.104.863.311.305.254.457.584.457.99 0 .368-.133.765-.4 1.19-.266.426-.8 1.093-1.6 2.003l-2.037 2.323c-.127.14-.19.244-.19.311 0 .102.042.176.127.223.05.03.158.044.323.044h5.079c.198 0 .323-.025.374-.076.05-.051.076-.176.076-.375v-.571c0-.199-.025-.324-.076-.374-.05-.051-.176-.077-.374-.077h-2.698z"/>
</svg>
