<svg width="20" height="20" viewBox="0 0 20 20" xmlns="http://www.w3.org/2000/svg"><title>C7BC1DD6-CDF1-41B4-8C03-A4279A386ECC</title><path d="M16.276 10.774c-1.694 0-3.099.581-4.294 1.776-1.162 1.162-1.744 2.522-1.775 4.153l6.441-5.919a6.548 6.548 0 0 0-.372-.01M9.883 2c-2.2 0-4.024.753-5.578 2.305C2.755 5.858 2 7.683 2 9.882s.754 4.021 2.305 5.573c1.151 1.15 2.446 1.861 3.933 2.154a8.775 8.775 0 0 1-.033-.765c0-2.219.795-4.14 2.363-5.708 1.567-1.567 3.488-2.362 5.708-2.362.491 0 .972.04 1.437.118-.199-1.764-.942-3.272-2.257-4.588C13.905 2.753 12.082 2 9.883 2m-.431 17.754h-.003l-.042-.001c-2.516-.106-4.708-1.077-6.516-2.884C.973 14.951 0 12.6 0 9.882c0-2.717.973-5.07 2.891-6.991C4.813.972 7.165 0 9.883 0s5.069.972 6.987 2.89c1.922 1.922 2.896 4.275 2.896 6.992 0 .117-.002.234-.006.349l-.003.051c-.018.225-.111.43-.252.588-.022.023-.044.046-.068.067l-9.308 8.554a.996.996 0 0 1-.677.263" fill="#11A0F9" fill-rule="evenodd"/></svg>