<?xml version="1.0" encoding="UTF-8"?>
<svg width="30px" height="30px" viewBox="0 0 30 30" version="1.1" xmlns="http://www.w3.org/2000/svg" xmlns:xlink="http://www.w3.org/1999/xlink">
    <!-- Generator: Sketch 50.2 (55047) - http://www.bohemiancoding.com/sketch -->
    <title>Combined Shape</title>
    <desc>Created with Sketch.</desc>
    <defs></defs>
    <g id="Правый-блок" stroke="none" stroke-width="1" fill="none" fill-rule="evenodd">
        <g id="Фильтр" transform="translate(-517.000000, -12.000000)" fill="#FFBB44">
            <path d="M538,29 L538,28 C538,27.4477153 537.552285,27 537,27 C536.447715,27 536,27.4477153 536,28 L536,29 L535,29 C534.447715,29 534,29.4477153 534,30 C534,30.5522847 534.447715,31 535,31 L536,31 L536,32 C536,32.5522847 536.447715,33 537,33 C537.552285,33 538,32.5522847 538,32 L538,31 L539,31 C539.552285,31 540,30.5522847 540,30 C540,29.4477153 539.552285,29 539,29 L538,29 Z M532,42 C523.715729,42 517,35.2842712 517,27 C517,18.7157288 523.715729,12 532,12 C540.284271,12 547,18.7157288 547,27 C547,35.2842712 540.284271,42 532,42 Z M527,22 C526.447715,22 526,22.4477153 526,23 C526,23.5522847 526.447715,24 527,24 L537,24 C537.552285,24 538,23.5522847 538,23 C538,22.4477153 537.552285,22 537,22 L527,22 Z M527,26 C526.447715,26 526,26.4477153 526,27 C526,27.5522847 526.447715,28 527,28 L533.5,28 C534.052285,28 534.5,27.5522847 534.5,27 C534.5,26.4477153 534.052285,26 533.5,26 L527,26 Z M527,30 C526.447715,30 526,30.4477153 526,31 C526,31.5522847 526.447715,32 527,32 L531,32 C531.552285,32 532,31.5522847 532,31 C532,30.4477153 531.552285,30 531,30 L527,30 Z" id="Combined-Shape"></path>
        </g>
    </g>
</svg>