<?xml version="1.0" encoding="UTF-8"?>
<svg width="22px" height="28px" viewBox="0 0 22 28" version="1.1" xmlns="http://www.w3.org/2000/svg" xmlns:xlink="http://www.w3.org/1999/xlink">
    <!-- Generator: Sketch 47 (45396) - http://www.bohemiancoding.com/sketch -->
    <title>Combined Shape</title>
    <desc>Created with Sketch.</desc>
    <defs></defs>
    <g id="Левый-блок" stroke="none" stroke-width="1" fill="none" fill-rule="evenodd">
        <g id="Artboard" transform="translate(-142.000000, -198.000000)" fill-rule="nonzero" fill="#FFFFFF">
            <path d="M154.375,213.125 L156.125,213.125 C156.677285,213.125 157.125,213.572715 157.125,214.125 L157.125,214.875 L157.125,214.875 C157.125,215.427285 156.677285,215.875 156.125,215.875 L152.625,215.875 C152.072715,215.875 151.625,215.427285 151.625,214.875 L151.625,214.309568 L151.625,209.005865 C151.625,208.243234 152.235314,207.625 153,207.625 C153.759392,207.625 154.375,208.245091 154.375,209.005865 L154.375,213.125 Z M154.375,203.585104 C156.142938,203.805563 157.780585,204.445567 159.185164,205.402343 C159.209912,205.374726 159.235557,205.347627 159.2621,205.321085 L160.321085,204.2621 C161.102596,203.480589 162.369041,203.479954 163.143281,204.254194 L163.245806,204.356719 C164.022951,205.133864 164.019447,206.397369 163.2379,207.178915 L162.178915,208.2379 C162.152373,208.264442 162.125272,208.290084 162.097649,208.314825 C163.2982,210.07727 164,212.206678 164,214.5 C164,220.575132 159.075132,225.5 153,225.5 C146.924868,225.5 142,220.575132 142,214.5 C142,208.890526 146.198822,204.261739 151.625,203.585104 L151.625,202.125 L150.872095,202.125 C149.76913,202.125 148.875,201.229936 148.875,200.134996 L148.875,199.990004 C148.875,198.890955 149.7736,198 150.872095,198 L155.127905,198 C156.23087,198 157.125,198.895064 157.125,199.990004 L157.125,200.134996 C157.125,201.234045 156.2264,202.125 155.127905,202.125 L154.375,202.125 L154.375,203.585104 Z M144.75,214.5 C144.75,219.056349 148.443651,222.75 153,222.75 C157.556349,222.75 161.25,219.056349 161.25,214.5 C161.25,209.943651 157.556349,206.25 153,206.25 C148.443651,206.25 144.75,209.943651 144.75,214.5 Z" id="Combined-Shape"></path>
        </g>
    </g>
</svg>