<?xml version="1.0" encoding="UTF-8"?>
<svg width="223px" height="17px" viewBox="0 0 223 17" version="1.1" xmlns="http://www.w3.org/2000/svg" xmlns:xlink="http://www.w3.org/1999/xlink">
    <!-- Generator: Sketch 46 (44423) - http://www.bohemiancoding.com/sketch -->
    <title>Voices</title>
    <desc>Created with Sketch.</desc>
    <defs></defs>
    <g id="Левый-блок" stroke="none" stroke-width="1" fill="none" fill-rule="evenodd">
        <g id="Chat-more" transform="translate(-73.000000, -1030.000000)" fill="#22A5F6">
            <g id="Chat-Copy" transform="translate(0.000000, 457.000000)">
                <g id="Group-14" transform="translate(0.000000, 435.000000)">
                    <g id="Group-10" transform="translate(10.000000, 138.000000)">
                        <path d="M63,12 L66,12 L66,17 L63,17 L63,12 Z M123,12 L126,12 L126,17 L123,17 L123,12 Z M253,12 L256,12 L256,17 L253,17 L253,12 Z M218,12 L221,12 L221,17 L218,17 L218,12 Z M93,5 L96,5 L96,17 L93,17 L93,5 Z M188,5 L191,5 L191,17 L188,17 L188,5 Z M153,5 L156,5 L156,17 L153,17 L153,5 Z M283,5 L286,5 L286,17 L283,17 L283,5 Z M78,0 L81,0 L81,17 L78,17 L78,0 Z M138,0 L141,0 L141,17 L138,17 L138,0 Z M268,0 L271,0 L271,17 L268,17 L268,0 Z M108,15 L111,15 L111,17 L108,17 L108,15 Z M238,15 L241,15 L241,17 L238,17 L238,15 Z M203,15 L206,15 L206,17 L203,17 L203,15 Z M168,15 L171,15 L171,17 L168,17 L168,15 Z M68,14 L71,14 L71,17 L68,17 L68,14 Z M128,14 L131,14 L131,17 L128,17 L128,14 Z M258,14 L261,14 L261,17 L258,17 L258,14 Z M223,14 L226,14 L226,17 L223,17 L223,14 Z M98,14 L101,14 L101,17 L98,17 L98,14 Z M193,14 L196,14 L196,17 L193,17 L193,14 Z M158,14 L161,14 L161,17 L158,17 L158,14 Z M83,6 L86,6 L86,17 L83,17 L83,6 Z M143,6 L146,6 L146,17 L143,17 L143,6 Z M273,6 L276,6 L276,17 L273,17 L273,6 Z M113,14 L116,14 L116,17 L113,17 L113,14 Z M243,14 L246,14 L246,17 L243,17 L243,14 Z M208,14 L211,14 L211,17 L208,17 L208,14 Z M173,14 L176,14 L176,17 L173,17 L173,14 Z M73,1 L76,1 L76,17 L73,17 L73,1 Z M133,1 L136,1 L136,17 L133,17 L133,1 Z M263,1 L266,1 L266,17 L263,17 L263,1 Z M228,1 L231,1 L231,17 L228,17 L228,1 Z M103,12 L106,12 L106,17 L103,17 L103,12 Z M233,12 L236,12 L236,17 L233,17 L233,12 Z M198,12 L201,12 L201,17 L198,17 L198,12 Z M163,12 L166,12 L166,17 L163,17 L163,12 Z M88,8 L91,8 L91,17 L88,17 L88,8 Z M183,8 L186,8 L186,17 L183,17 L183,8 Z M148,8 L151,8 L151,17 L148,17 L148,8 Z M278,8 L281,8 L281,17 L278,17 L278,8 Z M118,10 L121,10 L121,17 L118,17 L118,10 Z M248,10 L251,10 L251,17 L248,17 L248,10 Z M213,10 L216,10 L216,17 L213,17 L213,10 Z M178,10 L181,10 L181,17 L178,17 L178,10 Z" id="Voices"></path>
                    </g>
                </g>
            </g>
        </g>
    </g>
</svg>