<svg width="28" height="28" viewBox="0 0 28 28" xmlns="http://www.w3.org/2000/svg"><title>4961BF93-D3A3-486B-872D-37E4B808C631</title><g fill-rule="nonzero" fill="#49B7FA"><path d="M20.81 17.818c-.828 0-1.72-.127-2.42-.445-1.335 1.209-2.735 2.036-3.435 2.418 1.018 1.654 2.672 2.864 4.645 3.373.636.127 1.273.254 1.845.254 1.4 0 2.673-.382 3.819-.954.19-.637.254-1.337.254-1.973 0-1.21-.318-2.482-.89-3.627-1.146.636-2.483.954-3.819.954zM21.318 11.9c0 1.782-.954 3.373-2.1 4.645.318.064.7.064 1.018.064 1.655 0 3.31-.509 4.773-1.654 1.655-1.273 2.61-3.119 2.927-4.964-1.081-1.464-2.736-2.482-4.518-2.927-.063 0-.19-.064-.254-.064v.064c-.255 1.527-.891 2.927-1.846 3.945v.891zM16.61 8.145c.317-.063.635-.127.954-.127h.063c1.21 0 2.418.637 3.118 1.718.7-1.145 1.082-2.545 1.082-4.009 0-2.1-.827-3.945-2.1-5.345H19.6c-1.845 0-3.436.636-4.9 1.973 1.4 1.463 1.91 3.372 1.91 5.281v.51zM11.327 8.018c1.146.064 2.355.7 2.928 1.91.318-.637.827-1.146 1.336-1.4v-.255c0-2.1-.891-4.264-2.61-5.791C11.519 1.145 9.674.572 7.828.572h-.254C6.3 1.973 5.536 3.756 5.536 5.792v.064h.255c2.227-.064 4.2.827 5.536 2.163zM7.318 12.155V11.9c0-2.1 1.337-3.436 2.8-3.818A7.427 7.427 0 0 0 6.236 7c-.445 0-.89.064-1.336.127A8.172 8.172 0 0 0 0 10.118c.318 1.846 1.273 3.627 2.864 4.837 1.145-1.464 2.736-2.482 4.454-2.8zM9.418 16.61c-.89-.955-1.654-2.1-1.973-3.437-1.718.636-3.245 1.909-4.136 3.627-.636 1.145-.89 2.418-.89 3.627 0 .7.126 1.464.254 2.1a7.598 7.598 0 0 0 3.69.955c.637 0 1.273-.064 1.91-.255-.191-.7-.318-1.4-.318-2.1 0-1.654.572-3.245 1.463-4.518zM9.736 24.055l.128-.064h.063-.063z"/><path d="M13.873 19.918c-.637-.318-2.291-1.209-3.755-2.609a7.584 7.584 0 0 0-.89 3.564c0 1.082.19 2.1.7 3.118A7.596 7.596 0 0 0 14 28c1.718-.764 3.182-2.1 4.01-3.945-1.974-.828-3.374-2.419-4.137-4.137z"/></g></svg>