<svg xmlns="http://www.w3.org/2000/svg" width="61" height="11" viewBox="0 0 61 11">
    <path fill="#233239" fill-rule="nonzero" d="M6.299 8.168c0-.38.108-.702.325-.965.217-.263.482-.395.796-.395.313 0 .578.132.795.395.217.263.326.584.326.965 0 .38-.109.701-.326.964-.217.264-.482.395-.795.395-.314 0-.579-.131-.796-.395-.217-.263-.325-.584-.325-.964zM2.485 10.14c-.181.263-.404.395-.67.395a.77.77 0 0 1-.614-.307 1.134 1.134 0 0 1-.253-.746c0-.263.06-.475.18-.636l4.394-7.17a2.49 2.49 0 0 1 .813-.823A2.003 2.003 0 0 1 8.45.821c.326.19.59.453.796.79l4.393 7.127c.072.102.132.215.18.34.049.124.073.26.073.405 0 .293-.085.541-.253.746a.77.77 0 0 1-.615.307c-.29 0-.518-.139-.687-.417L8.125 3.3a4.418 4.418 0 0 0-.316-.384c-.127-.139-.257-.208-.39-.208-.132 0-.261.07-.388.208a2.671 2.671 0 0 0-.298.384l-4.248 6.842zm27.351-.658c0 .293-.084.541-.253.746a.77.77 0 0 1-.615.307.615.615 0 0 1-.325-.088 1.343 1.343 0 0 1-.271-.219 2.11 2.11 0 0 1-.163-.22c-.494-.745-1.003-1.33-1.527-1.754a6.024 6.024 0 0 0-1.654-.965 6.628 6.628 0 0 0-1.835-.405 26.232 26.232 0 0 0-2.07-.077h-3.688v2.675c0 .293-.087.541-.262.746-.175.205-.377.307-.606.307a.77.77 0 0 1-.614-.307 1.134 1.134 0 0 1-.254-.746V3.847c0-.438.067-.833.2-1.184.132-.35.3-.65.505-.899.205-.248.44-.442.705-.581a1.7 1.7 0 0 1 .796-.208h9.436c.338 0 .657.076.959.23.3.153.566.362.795.625.229.263.41.57.542.92a3.2 3.2 0 0 1 .2 1.141c0 .293-.085.541-.254.746a.77.77 0 0 1-.615.307.77.77 0 0 1-.614-.307 1.134 1.134 0 0 1-.253-.746.808.808 0 0 0-.19-.548.747.747 0 0 0-.443-.263h-9.473a.517.517 0 0 0-.38.142.625.625 0 0 0-.18.34v1.14h3.688c1.06 0 2.018.074 2.874.22.856.146 1.63.384 2.323.713.693.329 1.314.76 1.862 1.294.548.533 1.04 1.187 1.473 1.962.121.19.181.388.181.592zm14.734-4.78a.77.77 0 0 1 .614.307c.169.204.253.453.253.745 0 .293-.084.541-.253.746a.77.77 0 0 1-.614.307h-9.003a.77.77 0 0 1-.615-.307 1.134 1.134 0 0 1-.253-.746c0-.292.084-.54.253-.745a.77.77 0 0 1 .615-.307h9.003zM35.368 3.08c-.422 0-.762.091-1.021.274-.26.183-.464.406-.615.669-.15.263-.253.552-.307.866a5.125 5.125 0 0 0-.082.866c0 .263.027.552.082.867.054.314.156.603.307.866.15.263.355.486.615.669.259.182.6.274 1.021.274h9.96a.77.77 0 0 1 .615.307c.17.204.254.453.254.745 0 .293-.085.541-.254.746a.77.77 0 0 1-.614.307h-10.54c-.494 0-.933-.146-1.32-.439a3.839 3.839 0 0 1-.984-1.129 5.876 5.876 0 0 1-.624-1.546 6.766 6.766 0 0 1-.217-1.667c0-.555.075-1.114.226-1.677.15-.563.37-1.075.66-1.535.289-.46.639-.837 1.048-1.13.41-.292.874-.438 1.392-.438H45.33a.77.77 0 0 1 .614.307c.17.204.254.453.254.745 0 .293-.085.541-.254.746a.77.77 0 0 1-.614.307h-9.961zm17.987 5.088c0-.38.109-.702.326-.965.217-.263.482-.395.795-.395.314 0 .579.132.796.395.217.263.325.584.325.965 0 .38-.108.701-.325.964-.217.264-.482.395-.796.395-.313 0-.578-.131-.795-.395-.217-.263-.326-.584-.326-.964zm-3.814 1.973c-.18.263-.404.395-.669.395a.77.77 0 0 1-.615-.307 1.134 1.134 0 0 1-.253-.746c0-.263.06-.475.181-.636l4.393-7.17a2.49 2.49 0 0 1 .814-.823 2.003 2.003 0 0 1 2.115-.033c.325.19.59.453.795.79l4.393 7.127c.072.102.132.215.18.34.049.124.073.26.073.405 0 .293-.084.541-.253.746a.77.77 0 0 1-.615.307c-.289 0-.518-.139-.687-.417L55.181 3.3a4.418 4.418 0 0 0-.316-.384c-.127-.139-.256-.208-.389-.208-.132 0-.262.07-.389.208a2.671 2.671 0 0 0-.298.384l-4.248 6.842z"/>
</svg>
