<svg xmlns="http://www.w3.org/2000/svg" width="22" height="14" viewBox="0 0 22 14">
    <g fill="none" fill-rule="evenodd">
        <g transform="translate(10.34 2.2)">
            <ellipse cx="5.5" cy="2.2" fill="#77909D" rx="2.2" ry="2.2"/>
            <path fill="#263238" d="M1.862 9.726h8.268c.48 0 .87-.356.87-.792 0 0-.094-1.196-.29-1.585C10.47 6.875 7.676 5.5 5.19 5.5c-1.748 0-4.132.925-5.19 1.493l1.862 2.733z"/>
        </g>
        <g>
            <circle cx="7.7" cy="3.3" r="3.3" fill="#263238"/>
            <path fill="#77909D" d="M7.7 7.7C4.403 7.7.703 9.628.385 10.292.125 10.837 0 12.514 0 12.514c0 .613.516 1.111 1.153 1.111h13.094c.637 0 1.153-.498 1.153-1.11 0 0-.124-1.678-.385-2.223C14.697 9.628 10.997 7.7 7.7 7.7z"/>
        </g>
    </g>
</svg>
