<svg xmlns="http://www.w3.org/2000/svg" width="38" height="38" viewBox="0 0 38 38">
    <g fill="none" fill-rule="evenodd">
        <g>
            <rect width="38" height="38" fill="#D1ECFD" rx="4"/>
            <g fill="#22A5F6" fill-rule="nonzero">
                <path d="M13 12.994v12.012c0 .547.45.994 1.006.994h9.988A1 1 0 0 0 25 25.006V12.994c0-.547-.45-.994-1.006-.994h-9.988a1 1 0 0 0-1.006.994zm-1 0A2 2 0 0 1 14.006 11h9.988c1.108 0 2.006.895 2.006 1.994v12.012A2 2 0 0 1 23.994 27h-9.988A2.001 2.001 0 0 1 12 25.006V12.994z"/>
                <path d="M15 19.505c0-.279.214-.505.505-.505h.99c.279 0 .505.214.505.505v.99a.497.497 0 0 1-.505.505h-.99a.497.497 0 0 1-.505-.505v-.99zM15 22.505c0-.279.214-.505.505-.505h.99c.279 0 .505.214.505.505v.99a.497.497 0 0 1-.505.505h-.99a.497.497 0 0 1-.505-.505v-.99zM18 19.505c0-.279.214-.505.505-.505h.99c.279 0 .505.214.505.505v.99a.497.497 0 0 1-.505.505h-.99a.497.497 0 0 1-.505-.505v-.99zM18 22.505c0-.279.214-.505.505-.505h.99c.279 0 .505.214.505.505v.99a.497.497 0 0 1-.505.505h-.99a.497.497 0 0 1-.505-.505v-.99zM21 19.505c0-.279.214-.505.505-.505h.99c.279 0 .505.214.505.505v.99a.497.497 0 0 1-.505.505h-.99a.497.497 0 0 1-.505-.505v-.99zM21 22.505c0-.279.214-.505.505-.505h.99c.279 0 .505.214.505.505v.99a.497.497 0 0 1-.505.505h-.99a.497.497 0 0 1-.505-.505v-.99z"/>
            </g>
        </g>
        <path fill="#22A5F6" d="M13 15h12v1H13z"/>
    </g>
</svg>
