<svg xmlns="http://www.w3.org/2000/svg" xmlns:xlink="http://www.w3.org/1999/xlink" width="16" height="16" viewBox="0 0 16 16">
    <defs>
        <path id="a" d="M16 2.536H0V2a2 2 0 0 1 2-2h12a2 2 0 0 1 2 2v.536zm0 1.821V14a2 2 0 0 1-2 2H2a2 2 0 0 1-2-2V4.357h16zM6.926 9.021h6.153a.912.912 0 1 0 0-1.821H6.926a.912.912 0 1 0 0 1.821zM2.004 8.1c0 .608.494 1.1 1.103 1.1a1.101 1.101 0 1 0-1.103-1.1zM3 11a1 1 0 0 0-1 1v1a1 1 0 0 0 1 1h10a1 1 0 0 0 1-1v-1a1 1 0 0 0-1-1H3z"/>
    </defs>
    <g fill="none" fill-rule="evenodd">
        <mask id="b" fill="#fff">
            <use xlink:href="#a"/>
        </mask>
        <use fill="#77909D" fill-rule="nonzero" xlink:href="#a"/>
        <path fill="#263238" d="M-2-2h21v6H-2z" mask="url(#b)"/>
    </g>
</svg>
