<svg xmlns="http://www.w3.org/2000/svg" width="210" height="54" viewBox="0 0 210 54">
    <g fill="none" fill-rule="evenodd">
        <path fill="#77909D" d="M150.336 1.57c-.634.909-2.05 1.646-3.143 1.646l-141.085.03A3.996 3.996 0 0 0 2.117 7.24v36.492h205.766V3.997A3.992 3.992 0 0 0 203.891 0h-50.45c-1.11 0-2.519.73-3.158 1.645l.053-.075z"/>
        <path fill="#263238" d="M154.33 8.906C153.993 7.853 152.817 7 151.72 7H3.993A3.99 3.99 0 0 0 0 10.996v36.166c0 3.313 2.693 6 6.002 6h197.996A6 6 0 0 0 210 47.164v-32.16A4.007 4.007 0 0 0 206 11h-48.994c-1.108 0-2.278-.848-2.616-1.906l-.06-.188z"/>
    </g>
</svg>
