<?xml version="1.0" encoding="utf-8"?>
<!-- Generator: Adobe Illustrator 21.0.0, SVG Export Plug-In . SVG Version: 6.00 Build 0)  -->
<svg version="1.1" id="Layer_1" xmlns="http://www.w3.org/2000/svg" xmlns:xlink="http://www.w3.org/1999/xlink" x="0px" y="0px"
   viewBox="0 0 210 54" style="enable-background:new 0 0 210 54;" xml:space="preserve">
<style type="text/css">
  .st0{fill-rule:evenodd;clip-rule:evenodd;fill:#77909D;}
  .st1{fill-rule:evenodd;clip-rule:evenodd;fill:#FFFFFF;}
</style>
<path class="st0" d="M151.5,1.5c-0.6,0.8-2,1.5-3.1,1.5L7,3C4.8,3,3,4.8,3,7v37h206V4c0-2.2-1.8-4-4-4h-50.5
  C153.4,0,152,0.7,151.5,1.5L151.5,1.5z"/>
<path class="st1" d="M154.5,10.6C154.1,9.2,152.5,8,151,8H4c-2.2,0-4,1.8-4,4v36c0,3.3,2.7,6,6,6h198c3.3,0,6-2.7,6-6V16
  c0-2.2-1.8-4-4-4h-49.5C155.7,12,154.8,11.4,154.5,10.6L154.5,10.6z"/>
</svg>
