<?xml version="1.0" encoding="UTF-8"?>
<svg width="29px" height="18px" viewBox="0 0 29 18" version="1.1" xmlns="http://www.w3.org/2000/svg" xmlns:xlink="http://www.w3.org/1999/xlink">
    <!-- Generator: Sketch 45 (43475) - http://www.bohemiancoding.com/sketch -->
    <title>Mastercard</title>
    <desc>Created with Sketch.</desc>
    <defs></defs>
    <g id="Правый-блок" stroke="none" stroke-width="1" fill="none" fill-rule="evenodd">
        <g id="Недоделанные-дела" transform="translate(-294.000000, -902.000000)">
            <g id="Mastercard" transform="translate(294.000000, 902.000000)">
                <path d="M28.5282107,8.96728365 C28.5282107,13.7858917 24.6150378,17.6922554 19.7876743,17.6922554 C17.7482886,17.6922554 15.872316,16.9952271 14.3855725,15.8270504 C16.4186451,14.2294111 17.7242501,11.7505497 17.7242501,8.96728365 C17.7242501,6.18426001 16.4186451,3.70539858 14.3855725,2.1077593 C15.872316,0.939340158 17.7482886,0.242311856 19.7876743,0.242311856 C24.6150378,0.242311856 28.5282107,4.14867562 28.5282107,8.96728365" id="Fill-1" fill="#F79E1B"></path>
                <path d="M11.0468707,8.96728365 C11.0468707,6.18426001 12.3524757,3.70539858 14.3855483,2.1077593 C12.898562,0.939340158 11.0225894,0.242311856 8.98344653,0.242311856 C4.15608297,0.242311856 0.24291004,4.14867562 0.24291004,8.96728365 C0.24291004,13.7858917 4.15608297,17.6922554 8.98344653,17.6922554 C11.0225894,17.6922554 12.898562,16.9952271 14.3855483,15.8270504 C12.3524757,14.2294111 11.0468707,11.7505497 11.0468707,8.96728365" id="Fill-3" fill="#EB001B"></path>
                <path d="M14.3855483,2.10783201 C12.3524757,3.70547129 11.0468707,6.18409036 11.0468707,8.96735636 C11.0468707,11.7506224 12.3524757,14.2294838 14.3855483,15.8268807 C16.4186208,14.2294838 17.7242258,11.7506224 17.7242258,8.96735636 C17.7242258,6.18409036 16.4186208,3.70547129 14.3855483,2.10783201" id="Fill-5" fill="#FF5F00"></path>
            </g>
        </g>
    </g>
</svg>