<svg xmlns="http://www.w3.org/2000/svg" xmlns:xlink="http://www.w3.org/1999/xlink" width="64" height="64" viewBox="0 0 64 64">
    <defs>
        <linearGradient id="a" x1="65.716%" x2="1.626%" y1="28.216%" y2="95.986%">
            <stop offset="0%" stop-color="#FFF"/>
            <stop offset="100%" stop-color="#77909D"/>
        </linearGradient>
        <path id="b" d="M0 2.003C0 .897.9 0 1.994 0h43.06v16.005c0 1.102.888 1.995 1.991 1.995H64v43.994A2.01 2.01 0 0 1 61.997 64H2.003A2.008 2.008 0 0 1 0 61.997V2.003z"/>
    </defs>
    <g fill="none" fill-rule="evenodd">
        <path fill="url(#a)" d="M45 0l19 18H45z" transform="matrix(-1 0 0 1 64 0)"/>
        <use fill="#D6E0E3" transform="matrix(-1 0 0 1 64 0)" xlink:href="#b"/>
        <path fill="#FFF" d="M8.299 40.908h5.517c2.735 0 4.649 1.885 4.649 4.63 0 2.753-1.953 4.648-4.717 4.648h-3.262V55H8.3V40.908zm2.187 1.846v5.596h2.754c1.895 0 2.989-1.026 2.989-2.803s-1.084-2.793-2.989-2.793h-2.754zm9.893-1.846h5.049c4.199 0 6.67 2.578 6.67 7.022 0 4.453-2.471 7.07-6.67 7.07h-5.05V40.908zm2.187 1.885v10.312h2.657c2.988 0 4.648-1.826 4.648-5.156 0-3.32-1.66-5.156-4.648-5.156h-2.657zM36.366 55v-5.898h6.054v-1.846h-6.055v-4.463h6.612v-1.885h-8.8V55h2.188z"/>
    </g>
</svg>
