<svg xmlns="http://www.w3.org/2000/svg" xmlns:xlink="http://www.w3.org/1999/xlink" width="184" height="49" viewBox="0 0 184 49">
    <defs>
        <path id="a" d="M48.16.015H0v48.16h48.16z"/>
    </defs>
    <g fill-rule="evenodd">
        <path fill="#333" d="M65.722 24.307h3.2c1.914 0 3.224-1.21 3.224-2.998 0-1.738-1.31-2.998-3.225-2.998h-3.2v5.996zm-3.225 8.363V15.742h6.928c1.763 0 3.2.529 4.333 1.562 1.133 1.032 1.688 2.367 1.688 4.005 0 1.637-.555 2.972-1.688 4.03-1.134 1.033-2.57 1.562-4.333 1.562h-3.703v5.769h-3.225zM82.988 30.453c1.99 0 3.4-1.637 3.4-3.955 0-2.317-1.41-3.955-3.4-3.955s-3.376 1.638-3.376 3.955c0 2.318 1.386 3.955 3.376 3.955m4.811-8.615c1.235 1.21 1.864 2.771 1.864 4.66 0 1.89-.63 3.452-1.864 4.66-1.234 1.21-2.846 1.814-4.811 1.814-1.94 0-3.552-.604-4.787-1.813-1.234-1.21-1.864-2.771-1.864-4.66 0-1.89.63-3.452 1.864-4.661 1.235-1.21 2.847-1.814 4.787-1.814 1.965 0 3.577.605 4.811 1.814M91.805 32.67V20.326h3.098v4.787h1.008l3.703-4.787h3.401l-4.51 5.92 4.863 6.424h-3.552l-3.83-5.088h-1.083v5.088zM112.61 25.365c-.1-1.789-1.234-2.948-2.846-2.948-1.638 0-2.897 1.21-3.099 2.948h5.945zm1.436-3.603c1.109 1.16 1.663 2.67 1.663 4.51 0 .252-.025.604-.05 1.032h-8.994c.202 1.99 1.789 3.275 3.905 3.275 1.108 0 2.292-.352 3.552-1.032l.982 2.191c-1.662.831-3.3 1.234-4.937 1.234-1.99 0-3.603-.604-4.862-1.813-1.235-1.21-1.864-2.771-1.864-4.66 0-1.89.579-3.452 1.763-4.661 1.184-1.21 2.696-1.814 4.56-1.814 1.763 0 3.199.58 4.282 1.738zM116.487 22.77v-2.444h10.706v2.444h-3.753v9.9h-3.224v-9.9zM132.667 29.244c.655.781 1.461 1.159 2.419 1.159 2.015 0 3.4-1.663 3.4-4.056 0-2.217-1.385-3.753-3.375-3.753-2.015 0-3.426 1.511-3.426 3.703 0 1.184.327 2.166.982 2.947m2.721-13.93l3.955-.958.58 2.444-4.006.957c-2.318.58-3.703 1.914-4.131 4.056 1.007-1.184 2.368-1.789 4.106-1.789 1.637 0 2.972.58 4.056 1.764 1.083 1.158 1.637 2.62 1.637 4.383 0 2.015-.605 3.653-1.788 4.912-1.185 1.26-2.721 1.89-4.585 1.89-2.04 0-3.678-.706-4.913-2.142-1.234-1.436-1.839-3.375-1.839-5.794 0-5.315 2.368-8.69 6.928-9.724M148.117 30.705c1.713 0 2.847-1.184 2.847-2.872v-.73c-.63-.177-1.285-.252-2.015-.252-1.84 0-2.973.78-2.973 2.066 0 1.007.932 1.788 2.141 1.788m.454-5.718c.78 0 1.587.075 2.393.252v-.655c0-1.235-1.033-2.167-2.544-2.167-1.235 0-2.57.303-4.056.882l-.806-2.242c1.814-.68 3.552-1.033 5.24-1.033 1.561 0 2.82.428 3.753 1.285.957.831 1.436 1.94 1.436 3.325v5.013c0 .53.353.882.856.882.227 0 .429-.025.63-.076l.227 2.343a9.379 9.379 0 0 1-1.713.176c-1.234 0-2.217-.63-2.645-1.662a5.717 5.717 0 0 1-4.056 1.662c-1.285 0-2.343-.352-3.174-1.083-.831-.73-1.234-1.662-1.234-2.796 0-2.595 2.09-4.106 5.693-4.106M157.247 32.67V20.326h3.224v4.862h5.391v-4.862h3.225V32.67h-3.225v-5.038h-5.39v5.038zM171.956 32.67V20.326h3.098v4.787h1.008l3.703-4.787h3.401l-4.51 5.92 4.863 6.424h-3.552l-3.83-5.088h-1.083v5.088z"/>
        <g transform="translate(0 .106)">
            <mask id="b" fill="#fff">
                <use xlink:href="#a"/>
            </mask>
            <path fill="#FF7814" d="M35.445 13.685l-10.231 24.7a.721.721 0 0 1-1.377-.155 16.88 16.88 0 0 0-4.744-9.148 16.88 16.88 0 0 0-9.148-4.744.721.721 0 0 1-.155-1.377l24.708-10.234a.716.716 0 0 1 .307-.061.72.72 0 0 1 .64 1.019M24.08.015C10.781.014 0 10.794 0 24.094c0 13.299 10.781 24.08 24.08 24.08 13.3 0 24.08-10.781 24.08-24.08 0-13.3-10.78-24.08-24.08-24.08" mask="url(#b)"/>
        </g>
    </g>
</svg>
