<svg xmlns="http://www.w3.org/2000/svg" width="18" height="18" viewBox="0 0 18 18">
    <g fill="none" fill-rule="nonzero">
        <path fill="#263238" d="M2.892 12.127l3.722 3.721-.987 1.719a.472.472 0 0 1-.744.099L1.097 13.88a.472.472 0 0 1 .093-.74l1.702-1.013zM14.86 9.208l-4.358 4.987.114 2.721a.473.473 0 0 0 .817.303l1.241-1.33a7.933 7.933 0 0 0 2.125-5.105l.061-1.576zM9.486 3.834L4.5 8.193l-2.722-.114a.473.473 0 0 1-.302-.818l1.33-1.24a7.933 7.933 0 0 1 5.105-2.126l1.575-.06z"/>
        <path fill="#77909D" d="M17.872 1.615l-.008-.314a.406.406 0 0 0-.396-.396l-.315-.007c-1.712-.045-4.058-.316-5.63.602-1.153.674-4.267 3.392-9.344 8.154l-.586.586a.406.406 0 0 0 0 .574l.591.59 5.182 5.182.59.59a.404.404 0 0 0 .575 0l.586-.586c4.74-5.098 7.446-8.223 8.12-9.376.917-1.572.68-3.886.635-5.599z"/>
        <path fill="#FFF" d="M10.013 5.498a2.306 2.306 0 0 0 0 3.258c.45.45 1.04.674 1.63.674.59 0 1.18-.225 1.628-.674a2.306 2.306 0 0 0 0-3.258 2.306 2.306 0 0 0-3.258 0z"/>
        <path fill="#263238" d="M10.479 5.964a1.647 1.647 0 0 0 0 2.327c.32.32.742.48 1.163.48.422 0 .843-.16 1.164-.48a1.647 1.647 0 0 0 0-2.327 1.647 1.647 0 0 0-2.327 0z"/>
    </g>
</svg>
