<svg xmlns="http://www.w3.org/2000/svg" width="46" height="46" viewBox="0 0 46 46">
  <path d="M15.278 20H20v-3h-.502c-1.991-.004-3.599 1.003-4.22 3zM15 22v3h.67a3.001 3.001 0 0 1 5.66 0h5.34a3.001 3.001 0 0 1 5.66 0H33v-1c0-.895-.469-1.538-1.545-2H15zm12.308-2a13.245 13.245 0 0 1-.702-1.007l-.116-.18C25.59 17.413 25.09 17 24 17h-2v3h5.308zM35 25.5v.5a1 1 0 0 1-1.01 1h-1.66a3.001 3.001 0 0 1-5.66 0h-5.34a3.001 3.001 0 0 1-5.66 0h-1.676A.994.994 0 0 1 13 26v-1-2.999c-.007-4.496 2.88-7.01 6.502-7.001 1.018.002 3.52 0 4.498 0 1.956 0 2.94.815 4.172 2.731l.117.181c.72 1.123 1.084 1.485 1.689 1.6C33.213 20.123 35 21.51 35 24v1.5zm-4.5.5a1 1 0 1 0-2 0 1 1 0 0 0 2 0zm-11 0a1 1 0 1 0-2 0 1 1 0 0 0 2 0z"/>
</svg>
