<svg xmlns="http://www.w3.org/2000/svg" width="38" height="46" viewBox="0 0 38 46">
  <g fill="none" fill-rule="evenodd">
    <path fill="#FFF" d="M38 19.424c0-5.362-1.887-9.94-5.66-13.734C28.977 2.31 24.995.434 20.395.064a36.177 36.177 0 0 0-1.4-.064c-.051 0-.982.03-1.39.064-4.6.37-8.582 2.245-11.945 5.626C1.887 9.484 0 14.062 0 19.424c0 3.13.641 5.995 1.924 8.592 3.2 6.175 9.11 9.976 17.733 17.191 7.747-7.213 13.215-11.014 16.403-17.19 1.293-2.602 1.94-5.465 1.94-8.593z"/>
    <circle cx="19" cy="19" r="7" fill="#F60"/>
  </g>
</svg>
